HIERARCHY
ROOT hip
{
	OFFSET 0.000000 0.000000 0.000000 
	CHANNELS 6 Xposition Yposition Zposition Xrotation Zrotation Yrotation
	JOINT abdomen
	{
		OFFSET 0.000000 3.402643 0.000000 
		CHANNELS 3 Xrotation Zrotation Yrotation
		JOINT chest
		{
			OFFSET 0.000000 8.438565 -0.680529 
			CHANNELS 3 Xrotation Zrotation Yrotation
			JOINT neck
			{
				OFFSET 0.000000 10.207942 -0.272212 
				CHANNELS 3 Xrotation Zrotation Yrotation
				JOINT head
				{
					OFFSET 0.000000 3.130431 0.000000 
					CHANNELS 3 Xrotation Zrotation Yrotation
					End Site
					{
						OFFSET 0.000000 3.130435 0.000000 
					}
				}
			}
			JOINT lCollar
			{
				OFFSET 3.470700 6.669187 -0.816635 
				CHANNELS 3 Yrotation Zrotation Xrotation
				JOINT lShldr
				{
					OFFSET 3.198488 0.000000 0.000000 
					CHANNELS 3 Zrotation Yrotation Xrotation
					JOINT lForeArm
					{
						OFFSET 10.139888 0.000000 0.000000 
						CHANNELS 3 Yrotation Zrotation Xrotation
						JOINT lHand
						{
							OFFSET 8.370511 0.000000 0.000000 
							CHANNELS 3 Zrotation Yrotation Xrotation
							End Site
							{
								OFFSET 4.083176 0.000000 0.000000 
							}
						}
					}
				}
			}
			JOINT rCollar
			{
				OFFSET -3.470700 6.669187 -0.816635 
				CHANNELS 3 Yrotation Zrotation Xrotation
				JOINT rShldr
				{
					OFFSET -3.198488 0.000000 0.000000 
					CHANNELS 3 Zrotation Yrotation Xrotation
					JOINT rForeArm
					{
						OFFSET -10.139888 0.000000 0.000000 
						CHANNELS 3 Yrotation Zrotation Xrotation
						JOINT rHand
						{
							OFFSET -8.370511 0.000000 0.000000 
							CHANNELS 3 Zrotation Yrotation Xrotation
							End Site
							{
								OFFSET -4.083176 0.000000 0.000000 
							}
						}
					}
				}
			}
		}
	}
	JOINT lThigh
	{
		OFFSET 5.308129 -1.633274 1.361059 
		CHANNELS 3 Xrotation Zrotation Yrotation
		JOINT lShin
		{
			OFFSET -2.041588 -20.007561 0.000000 
			CHANNELS 3 Xrotation Zrotation Yrotation
			JOINT lFoot
			{
				OFFSET 0.000000 -19.190928 -1.224953 
				CHANNELS 3 Xrotation Yrotation Zrotation
				End Site
				{
					OFFSET 0.000000 -2.449906 4.627600 
				}
			}
		}
	}
	JOINT rThigh
	{
		OFFSET -5.308129 -1.633274 1.361059 
		CHANNELS 3 Xrotation Zrotation Yrotation
		JOINT rShin
		{
			OFFSET 2.041588 -20.007561 0.000000 
			CHANNELS 3 Xrotation Zrotation Yrotation
			JOINT rFoot
			{
				OFFSET 0.000000 -19.190928 -1.224953 
				CHANNELS 3 Xrotation Yrotation Zrotation
				End Site
				{
					OFFSET 0.000000 -2.449906 4.627600 
				}
			}
		}
	}
}
MOTION
Frames: 8
Frame Time: 0.033333
-16.185589 52.378746 -15.454817 175.419922 177.539063 0.850029 22.302391 -1.330961 -10.868353 -6.975829 0.070483 -5.106160 51.562500 8.076172 2.618559 -65.214844 4.677734 -11.982422 5.195098 -16.081039 10.640812 -18.665075 -0.470021 -36.773533 -90.673531 0.207964 -2.869427 31.837896 -5.832877 16.840532 -13.403749 25.000000 19.832018 28.299685 -22.006813 -0.692219 86.249008 0.315446 -3.021515 -40.322380 -56.005589 20.480204 -9.656584 20.275120 15.235044 34.067165 -4.816042 -3.220959 13.050447 8.949937 4.205781 -13.360039 -3.924868 8.662934 16.247671 5.565393 1.982945 1.195366 0.477103 14.738071 
-15.045214 51.935909 -15.094046 176.826187 177.187500 2.480948 23.488567 -2.451549 -9.766035 -7.316863 -0.787245 -4.761884 51.562500 8.076172 2.618559 -66.806641 2.070312 -9.950819 4.989817 -17.187160 10.356128 -20.881557 2.684970 -38.547989 -88.743347 0.409904 -2.978511 33.934513 -5.099887 16.155394 -13.506248 25.000000 19.995033 27.879667 -20.142078 2.221989 85.725006 0.129940 -3.071465 -41.420929 -56.996449 21.617538 -12.518470 23.316910 12.718686 37.760651 -4.484478 -3.669458 22.149088 5.748791 5.897209 -13.594354 -2.714145 4.524842 19.776749 5.427316 2.496633 -0.872930 1.675916 14.197469 
-13.824547 51.477245 -14.693554 178.232437 176.835938 4.121633 24.687450 -3.608903 -8.527254 -7.648569 -1.654391 -4.408675 51.562500 8.076172 2.618559 -68.779297 -0.478516 -8.115315 4.948813 -18.621935 10.226984 -22.822229 5.939491 -41.012634 -87.317787 -0.091067 -3.117238 36.557957 -4.766828 14.853633 -13.191934 25.000000 19.688545 27.655191 -18.216389 3.846631 85.721939 0.295927 -3.032377 -41.680603 -57.025986 22.159224 -14.793939 25.953976 10.232804 39.694511 -4.539205 -4.085620 30.294209 3.794300 8.682808 -13.785333 -1.464091 0.187855 23.672707 5.328020 2.936158 -2.557178 2.274042 13.679250 
-12.698750 51.097656 -14.337886 179.462906 176.650391 6.113852 26.069258 -4.862369 -6.999465 -8.160666 -2.349567 -3.830000 51.562500 8.076172 2.618559 -70.937508 -2.773437 -5.986328 4.907288 -19.890444 10.090693 -24.765017 9.013779 -43.542805 -86.090973 0.117240 -2.865624 38.823082 -3.800776 13.626092 -13.026038 25.000000 19.526884 27.596697 -16.791317 4.715425 86.604118 0.126676 -3.030624 -41.937309 -56.138065 22.433023 -16.677210 26.283346 8.892968 42.348438 -4.315559 -3.925205 28.653992 6.361487 9.749338 -14.097165 -0.449395 -2.852189 26.667919 5.388998 2.920259 -3.921026 2.979027 14.386912 
-11.704226 50.314762 -14.668531 0.527344 3.505854 -171.874390 27.271538 -6.056024 -5.649882 -8.493533 -3.226174 -3.281967 51.562500 8.076172 2.618559 -73.320313 -4.990234 -3.848506 4.859180 -20.975096 9.923337 -26.547171 11.655726 -45.669624 -84.860535 0.130214 -2.917215 40.333496 -2.896026 12.497649 -12.553143 25.000000 19.244297 27.192102 -16.299877 4.986459 87.837631 -0.026264 -3.009010 -41.999111 -54.747643 22.659630 -18.345427 25.646847 7.912155 45.144573 -4.114236 -4.532799 17.458929 11.874600 6.756137 -13.861605 0.556558 -5.733981 29.486498 5.095181 2.965141 -9.522637 3.144870 13.418828 
-10.734483 49.879822 -14.783929 1.406250 3.681641 -169.530624 28.112917 -7.420364 -4.358315 -8.830787 -3.926921 -2.684682 51.562500 8.076172 2.618559 -75.732422 -6.962890 -1.260949 4.717348 -21.698591 9.844660 -28.730730 13.810596 -48.663197 -83.806015 0.149653 -2.959036 39.370178 -2.343463 11.955798 -12.235970 25.000000 19.114845 26.679014 -15.577352 5.136053 89.243645 -0.000146 -2.958421 -42.482445 -53.546062 23.122030 -19.462494 24.608629 7.637253 46.895760 -3.860306 -4.598240 3.409310 18.312918 4.685388 -14.091166 1.200779 -8.586641 32.335220 5.076242 3.103484 -11.450334 3.062583 13.230592 
-9.912559 50.014267 -15.208109 1.757813 3.681641 -167.050156 28.408878 -8.540613 -3.247880 -9.168551 -4.627544 -2.088218 51.562500 8.076172 2.618559 -78.183601 -8.837890 2.041016 4.569367 -22.247082 9.742578 -31.456860 15.427343 -52.316868 -82.911217 -0.175749 -2.903018 37.113743 -1.340685 11.794510 -11.832975 25.000000 18.839025 25.539759 -14.431959 5.474741 90.308090 0.009884 -3.064937 -43.917053 -53.021404 23.212858 -19.743616 23.804684 8.389246 46.749130 -4.192239 -4.383071 -6.208666 22.686932 4.363067 -12.660099 1.855773 -11.215704 30.900692 5.174666 3.138441 -10.813315 2.499749 12.672538 
-9.419677 50.362209 -15.420803 1.582031 3.681623 -164.247345 28.149799 -9.609678 -2.344468 -9.497025 -5.327844 -1.657749 51.562500 8.076172 2.618559 -80.478516 -10.498047 6.267752 4.673746 -22.772409 9.683867 -34.027824 17.110640 -55.895924 -82.221024 0.002956 -2.973591 35.244457 -0.398081 11.570628 -11.938371 25.000000 18.900194 24.354052 -13.913743 6.705530 91.541801 -0.152734 -2.869026 -45.431473 -52.646629 22.797447 -18.611059 23.296513 11.678673 43.597511 -4.462554 -3.971920 -8.292553 21.514399 4.584406 -12.559584 1.876015 -14.512417 30.543840 4.843274 3.003365 -8.017617 2.615192 12.788080 
